<svg width="1600" height="1000" viewBox="0 0 1600 1000" xmlns="http://www.w3.org/2000/svg" fill="none">
  <defs>
    <linearGradient id="sky" x1="0" y1="0" x2="0" y2="1">
      <stop offset="0" stop-color="#80d7ff"/>
      <stop offset="0.45" stop-color="#aee7ff"/>
      <stop offset="0.72" stop-color="#ffd0a7"/>
      <stop offset="1" stop-color="#f6ba7a"/>
    </linearGradient>
    <linearGradient id="water" x1="0" y1="0" x2="0" y2="1">
      <stop offset="0" stop-color="#3bc0d8"/>
      <stop offset="0.6" stop-color="#1790ad"/>
      <stop offset="1" stop-color="#0f6f89"/>
    </linearGradient>
    <linearGradient id="shore" x1="0" y1="0" x2="0" y2="1">
      <stop offset="0" stop-color="#f8deb4"/>
      <stop offset="1" stop-color="#e8bd80"/>
    </linearGradient>
    <radialGradient id="sunGlow" cx="0" cy="0" r="1" gradientUnits="userSpaceOnUse" gradientTransform="translate(1220 160) rotate(90) scale(220)">
      <stop stop-color="#ffe694" stop-opacity="0.95"/>
      <stop offset="1" stop-color="#ffe694" stop-opacity="0"/>
    </radialGradient>
    <filter id="blur30" x="-20%" y="-20%" width="140%" height="140%">
      <feGaussianBlur stdDeviation="20"/>
    </filter>
  </defs>

  <rect width="1600" height="1000" fill="url(#sky)"/>
  <circle cx="1220" cy="160" r="82" fill="#ffd96a"/>
  <circle cx="1220" cy="160" r="220" fill="url(#sunGlow)"/>

  <path d="M0 410H1600V690H0V410Z" fill="url(#water)"/>
  <path d="M0 640C206 594 356 696 556 668C740 642 936 705 1120 670C1308 634 1454 700 1600 680V1000H0V640Z" fill="url(#shore)"/>

  <g opacity="0.35" stroke="#ffffff" stroke-width="4">
    <path d="M90 460C200 432 320 486 452 462"/>
    <path d="M520 500C650 470 770 530 905 502"/>
    <path d="M980 462C1110 434 1236 488 1370 464"/>
  </g>

  <g opacity="0.45" filter="url(#blur30)">
    <ellipse cx="220" cy="760" rx="180" ry="90" fill="#000"/>
    <ellipse cx="1390" cy="780" rx="190" ry="92" fill="#000"/>
  </g>

  <g opacity="0.7" stroke="#1f1f1f" stroke-linecap="round">
    <path d="M130 940C150 780 170 620 150 470" stroke-width="22"/>
    <path d="M150 470C250 430 330 420 420 430" stroke-width="14"/>
    <path d="M150 470C230 390 280 335 336 270" stroke-width="14"/>
    <path d="M150 470C210 510 278 575 350 670" stroke-width="14"/>

    <path d="M1470 950C1450 790 1432 640 1450 490" stroke-width="22"/>
    <path d="M1450 490C1370 430 1285 404 1180 396" stroke-width="14"/>
    <path d="M1450 490C1378 530 1308 600 1238 700" stroke-width="14"/>
    <path d="M1450 490C1398 418 1350 360 1290 300" stroke-width="14"/>
  </g>
</svg>